<?xml version="1.0" encoding="UTF-8"?>
<svg id="Layer_1" xmlns="http://www.w3.org/2000/svg" version="1.1" viewBox="0 0 826.9 225.5">
  <!-- Generator: Adobe Illustrator 30.0.0, SVG Export Plug-In . SVG Version: 2.1.1 Build 123)  -->
  <defs>
    <style>
      .st0 {
        fill: #e4232d;
      }

      .st1 {
        fill: #fff;
      }

      .st1, .st2, .st3 {
        stroke: #fff;
        stroke-miterlimit: 10;
      }

      .st1, .st3 {
        stroke-width: 1.4px;
      }

      .st2 {
        stroke-width: 1.4px;
      }

      .st2, .st3 {
        fill: none;
      }

      .st4 {
        fill: #2f3034;
      }
    </style>
  </defs>
  <g>
    <path class="st0" d="M238,94l-20.5-4.5,13.9-16.2c-12.1-12-38-15.1-64.7-6.5-3.9,1.3-7.6,2.7-11.1,4.3.4-3.8.7-7.8.7-11.8,0-28-11-51.7-26.1-59.5l-11.1,18.2L108.3-.1c-15.1,7.8-26.1,31.5-26.1,59.5s.2,8,.7,11.8c-3.5-1.6-7.3-3.1-11.1-4.3-26.7-8.7-52.6-5.5-64.7,6.5l13.9,16.2L.4,94c2.8,16.8,21.9,34.5,48.5,43.2,3.8,1.2,7.6,2.2,11.4,3-2.6,2.8-5.1,5.9-7.4,9.1-16.5,22.7-21.5,48.3-13.8,63.5l19.7-8.2-2.1,20.9c16.8,2.6,39.6-10.1,56.1-32.8,2.4-3.3,4.6-6.7,6.5-10.2,1.9,3.4,4.1,6.8,6.5,10.2,16.5,22.7,39.3,35.4,56.1,32.8l-2.1-20.9,19.7,8.2c7.7-15.2,2.6-40.8-13.8-63.5-2.4-3.2-4.8-6.3-7.4-9.1,3.8-.8,7.6-1.8,11.4-3,26.6-8.7,45.8-26.4,48.5-43.2Z"/>
    <polygon class="st3" points="178 141 119.2 183.5 60.4 141 82.9 72.1 155.5 72.1 178 141"/>
    <g>
      <g>
        <line class="st2" x1="118.9" y1="147.3" x2="153.7" y2="144.2"/>
        <line class="st2" x1="84" y1="144.2" x2="118.9" y2="147.3"/>
        <g>
          <polygon class="st3" points="153.7 144.2 118.9 164.3 84 144.2 84 103.9 118.9 83.8 153.7 103.9 153.7 144.2"/>
          <line class="st3" x1="153.7" y1="103.8" x2="118.9" y2="100.8"/>
          <line class="st3" x1="84" y1="103.9" x2="118.9" y2="100.8"/>
          <line class="st3" x1="153.7" y1="103.9" x2="139" y2="135.6"/>
          <line class="st3" x1="118.9" y1="164.3" x2="139" y2="135.6"/>
          <line class="st3" x1="84" y1="103.9" x2="98.7" y2="135.6"/>
          <line class="st3" x1="118.9" y1="164.3" x2="98.7" y2="135.6"/>
          <polygon class="st3" points="139 135.6 118.9 100.8 98.7 135.6 139 135.6"/>
          <polygon class="st3" points="98.7 112.1 118.9 147 139 112.1 98.7 112.1"/>
          <line class="st3" x1="84" y1="103.9" x2="98.7" y2="112.1"/>
          <line class="st3" x1="139" y1="112.1" x2="153.7" y2="103.9"/>
          <line class="st3" x1="118.9" y1="147" x2="118.9" y2="164.3"/>
          <circle class="st1" cx="118.9" cy="164.3" r="2.4"/>
          <circle class="st1" cx="84" cy="103.9" r="2.4"/>
          <circle class="st1" cx="98.7" cy="135.6" r="2.4"/>
          <circle class="st1" cx="139" cy="135.6" r="2.4"/>
          <circle class="st1" cx="118.9" cy="100.8" r="2.4"/>
          <circle class="st1" cx="153.7" cy="103.9" r="2.4"/>
          <line class="st3" x1="153.7" y1="144.2" x2="139" y2="112.1"/>
          <line class="st3" x1="118.9" y1="83.8" x2="139" y2="112.1"/>
          <line class="st3" x1="84" y1="144.2" x2="98.7" y2="112.1"/>
          <line class="st3" x1="118.9" y1="83.8" x2="98.7" y2="112.1"/>
        </g>
      </g>
      <line class="st3" x1="118.9" y1="164.3" x2="89.8" y2="162.1"/>
      <line class="st3" x1="147.9" y1="162.5" x2="118.9" y2="164.3"/>
      <line class="st3" x1="71.6" y1="106.9" x2="84" y2="103.9"/>
      <line class="st3" x1="166.8" y1="106.9" x2="153.7" y2="103.9"/>
      <line class="st3" x1="84" y1="144.2" x2="60.4" y2="140.9"/>
      <line class="st3" x1="153.7" y1="144.2" x2="178" y2="140.9"/>
      <line class="st3" x1="82.9" y1="72.1" x2="118.9" y2="83.8"/>
      <line class="st3" x1="155.5" y1="72.1" x2="118.9" y2="83.8"/>
    </g>
    <line class="st3" x1="119.2" y1="72.1" x2="118.9" y2="18"/>
    <line class="st3" x1="71.6" y1="106.9" x2="20.9" y2="89.5"/>
    <line class="st3" x1="58.7" y1="204.6" x2="89.8" y2="162.1"/>
    <line class="st3" x1="179.7" y1="204.6" x2="147.9" y2="162.5"/>
    <line class="st3" x1="217.5" y1="89.5" x2="166.8" y2="106.9"/>
    <line class="st3" x1="178" y1="141" x2="217.5" y2="89.5"/>
    <line class="st3" x1="155.5" y1="72.1" x2="217.5" y2="89.5"/>
    <line class="st3" x1="82.9" y1="72.1" x2="118.9" y2="18"/>
    <line class="st3" x1="155.5" y1="72.1" x2="118.9" y2="18"/>
    <line class="st3" x1="60.3" y1="140.2" x2="20.9" y2="89.5"/>
    <line class="st3" x1="82.9" y1="72.1" x2="20.9" y2="89.5"/>
    <line class="st3" x1="60.3" y1="140.2" x2="58.7" y2="204.6"/>
    <line class="st3" x1="119.2" y1="183.5" x2="58.7" y2="204.6"/>
    <line class="st3" x1="178" y1="141" x2="179.7" y2="204.6"/>
    <line class="st3" x1="119.2" y1="183.5" x2="179.7" y2="204.6"/>
  </g>
  <g>
    <path class="st4" d="M291.8,18h11.7c0,0,.1,19.7.1,19.7h22.7c0-.1-.1-19.9-.1-19.9h11.7c0,0,.3,53,.3,53h-11.7c0,0-.1-22.9-.1-22.9h-22.7c0,.1.1,23.1.1,23.1h-11.7c0,0-.3-53-.3-53Z"/>
    <path class="st4" d="M361.2,48.1l-20.1-30.3h14.6c0,0,11.4,19.7,11.4,19.7l11.8-19.9h13.9c0,0-19.8,30.5-19.8,30.5v22.6c.1,0-11.6,0-11.6,0v-22.6Z"/>
    <path class="st4" d="M395.9,17.5h19.7c2.7-.1,5.4.1,7.8.6,2.5.5,4.6,1.3,6.4,2.5,1.8,1.2,3.3,2.9,4.4,4.9,1.1,2.1,1.6,4.7,1.7,7.8,0,3.1-.5,5.7-1.5,7.8-1,2.1-2.4,3.8-4.1,5-1.7,1.3-3.8,2.2-6.2,2.7-2.4.5-5,.8-7.8.8h-8.6s.1,20.7.1,20.7h-11.7c0,0-.3-53-.3-53ZM407.7,39.9h7.8c1.1,0,2.1-.2,3-.4,1-.2,1.8-.6,2.6-1,.8-.5,1.4-1.1,1.9-2s.7-1.9.7-3.1c0-1.3-.3-2.4-1-3.3-.6-.8-1.4-1.5-2.4-1.9-1-.4-2.1-.7-3.3-.8-1.2-.1-2.4-.2-3.5-.2h-6s0,12.6,0,12.6Z"/>
    <path class="st4" d="M442.8,17.2l36.1-.2v10.8c0,0-24.3.1-24.3.1v9.9c0,0,23.1-.1,23.1-.1v10.8c0,0-23,.1-23,.1v10.8c0,0,25.8-.1,25.8-.1v10.8c0,0-37.4.2-37.4.2l-.3-53.1Z"/>
    <path class="st4" d="M488.9,17h20.6c2.7-.1,5.3.1,7.7.6,2.4.5,4.6,1.4,6.4,2.6,1.8,1.2,3.3,2.9,4.4,4.9,1.1,2.1,1.6,4.7,1.7,7.8,0,3.7-.9,6.9-2.9,9.6-1.9,2.6-4.8,4.3-8.5,5l13.6,22.3h-14c0,0-11.2-21.1-11.2-21.1h-5.8s.1,21.2.1,21.2h-11.7c0,0-.3-53-.3-53ZM500.7,38.9h6.9c1,0,2.2,0,3.3-.2,1.2,0,2.2-.3,3.2-.7.9-.4,1.7-1,2.4-1.8.6-.8.9-1.9.9-3.4,0-1.4-.3-2.4-.8-3.2s-1.3-1.4-2.1-1.8-1.8-.7-2.9-.8c-1.1-.1-2.2-.2-3.2-.2h-7.7s0,12.1,0,12.1Z"/>
    <path class="st4" d="M537.2,16.7h11.7c0,0,.2,42.2.2,42.2h21.7c0-.1,0,10.7,0,10.7l-33.4.2-.3-53.1Z"/>
    <path class="st4" d="M576.7,16.5l36.1-.2v10.8c0,0-24.3.1-24.3.1v9.9c0,0,23.1-.1,23.1-.1v10.8c0,0-23,.1-23,.1v10.8c0,0,25.8-.1,25.8-.1v10.8c0,0-37.4.2-37.4.2l-.3-53.1Z"/>
    <path class="st4" d="M622.8,16.3h17.6c4.3-.1,8.3.3,12.1,1.3,3.8.9,7.2,2.5,10,4.6,2.9,2.1,5.1,4.9,6.8,8.2,1.7,3.4,2.6,7.5,2.6,12.4,0,4.3-.8,8.1-2.4,11.4-1.6,3.3-3.8,6-6.5,8.3-2.7,2.2-5.9,3.9-9.5,5.1-3.6,1.2-7.4,1.8-11.3,1.8h-19.1c0,.1-.3-53-.3-53ZM634.7,58.5h6.1c2.7,0,5.2-.3,7.5-.9,2.3-.6,4.3-1.5,6-2.8,1.7-1.3,3-3,4-5,1-2.1,1.4-4.6,1.4-7.6,0-2.6-.5-4.9-1.5-6.8-1-1.9-2.3-3.5-4-4.7-1.7-1.2-3.6-2.2-5.8-2.8-2.2-.6-4.6-.9-7-.9h-6.9s.2,31.5.2,31.5Z"/>
    <path class="st4" d="M727.3,65.1c-3.4,1.8-7,3.1-10.8,4-3.7.8-7.6,1.2-11.5,1.3-4.2,0-8-.6-11.5-1.9-3.5-1.3-6.5-3.1-9.1-5.5-2.6-2.4-4.6-5.3-6-8.8-1.4-3.4-2.2-7.3-2.2-11.5,0-4.2.7-8.1,2.1-11.6,1.4-3.5,3.4-6.4,5.9-8.8,2.5-2.4,5.6-4.3,9-5.6,3.5-1.3,7.3-2,11.5-2,4.3,0,8.2.5,11.7,1.5,3.6,1,6.7,2.8,9.4,5.2l-8.2,9c-1.6-1.6-3.4-2.9-5.4-3.7-2-.8-4.5-1.3-7.5-1.2-2.5,0-4.8.4-6.8,1.3-2,.9-3.8,2.1-5.2,3.6-1.4,1.5-2.5,3.4-3.3,5.5-.8,2.1-1.1,4.4-1.1,6.8,0,2.5.4,4.8,1.2,6.9.8,2.1,1.9,3.9,3.4,5.4,1.5,1.5,3.2,2.7,5.2,3.5,2,.8,4.3,1.2,6.8,1.2,2.6,0,4.8-.3,6.6-.9,1.8-.6,3.3-1.2,4.4-1.8v-8.6s-9.6,0-9.6,0v-10.8c0,0,20.7-.1,20.7-.1v27.7Z"/>
    <path class="st4" d="M737.1,15.7l36.1-.2v10.8c0,0-24.3.1-24.3.1v9.9c0,0,23.1-.1,23.1-.1v10.8c0,0-23,.1-23,.1v10.8c0,0,25.8-.1,25.8-.1v10.8c0,0-37.4.2-37.4.2l-.3-53.1Z"/>
    <path class="st4" d="M783.1,15.4h20.6c2.7-.1,5.3.1,7.7.6,2.4.5,4.6,1.4,6.4,2.6,1.8,1.2,3.3,2.9,4.4,4.9,1.1,2.1,1.6,4.7,1.7,7.8,0,3.7-.9,6.9-2.9,9.6-1.9,2.6-4.8,4.3-8.5,5l13.6,22.3h-14c0,0-11.2-21.1-11.2-21.1h-5.8s.1,21.2.1,21.2h-11.7c0,0-.3-53-.3-53ZM794.9,37.3h6.9c1,0,2.2,0,3.3-.2,1.2,0,2.2-.3,3.2-.7.9-.4,1.7-1,2.4-1.8.6-.8.9-1.9.9-3.4,0-1.4-.3-2.4-.8-3.2-.6-.8-1.3-1.4-2.1-1.8s-1.8-.7-2.9-.8c-1.1-.1-2.2-.2-3.2-.2h-7.7s0,12.1,0,12.1Z"/>
  </g>
  <g>
    <path class="st0" d="M291.8,100.5h14.1v103.7h-14.1v-103.7Z"/>
    <path class="st0" d="M328.7,100.5h36.5c26.5,0,33.3,16,33.3,29s-9.8,25.6-25.5,27.4l29.4,47.3h-17.6l-26.4-45.7h-15.7v45.7h-14.1v-103.7ZM342.7,146.2h18.5c11.1,0,22.3-2.6,22.3-16.7s-11.1-16.7-22.3-16.7h-18.5v33.4Z"/>
    <path class="st0" d="M407.8,152.4c0-30.8,22.4-54.5,54.1-54.5s54.1,23.7,54.1,54.5-22.4,54.5-54.1,54.5-54.1-23.7-54.1-54.5ZM501,152.4c0-22.7-15.4-41.3-39.1-41.3s-39.1,18.6-39.1,41.3,15.4,41.3,39.1,41.3,39.1-18.6,39.1-41.3Z"/>
    <path class="st0" d="M532.9,100.5h14.1v43.1h53.8v-43.1h14.1v103.7h-14.1v-47.5h-53.8v47.5h-14.1v-103.7Z"/>
    <path class="st0" d="M671.3,100.5h12.7l44.4,103.7h-16.4l-10.4-25.6h-49.4l-10.3,25.6h-16.4l45.7-103.7ZM696.5,166.3l-19.3-47.6h-.3l-19.6,47.6h39.3Z"/>
  </g>
</svg>